<?xml version="1.0" encoding="utf-8"?>
<!-- Generator: Adobe Illustrator 25.0.1, SVG Export Plug-In . SVG Version: 6.00 Build 0)  -->
<svg version="1.0" id="Layer_1" xmlns="http://www.w3.org/2000/svg" xmlns:xlink="http://www.w3.org/1999/xlink" x="0px" y="0px"
	 viewBox="0 0 16 16" enable-background="new 0 0 16 16" xml:space="preserve">
<rect x="1.1" y="8.4" fill="#8C6E8C" width="13.8" height="6.1"/>
<rect x="1.9" y="12.7" fill="#FFFFFF" width="0.8" height="0.8"/>
<rect x="3.7" y="10.2" fill="#FFFFFF" width="0.8" height="2.6"/>
<rect x="7.2" y="9.6" fill="#FFFFFF" width="0.8" height="2.2"/>
<rect x="9" y="11.2" fill="#FFFFFF" width="0.8" height="2.2"/>
<rect x="10.8" y="9.4" fill="#FFFFFF" width="0.8" height="3.3"/>
<rect x="12.3" y="9.4" fill="#FFFFFF" width="0.8" height="3.3"/>
<rect x="11.5" y="12.7" fill="#FFFFFF" width="0.8" height="1"/>
<rect x="4.5" y="9.4" fill="#FFFFFF" width="2" height="0.8"/>
<path fill-rule="evenodd" clip-rule="evenodd" fill="#FFFFFF" stroke="#8C6E8C" d="M4.7,1.5h8.5v6.9H2.9V3.3h0.8v-1h1V1.5z"/>
<rect x="4.5" y="12.7" fill="#FFFFFF" width="2" height="0.8"/>
<rect x="7.2" y="11.2" fill="#FFFFFF" width="2.6" height="0.8"/>
<rect x="7.2" y="9.4" fill="#FFFFFF" width="2.6" height="0.8"/>
<rect x="7.2" y="12.7" fill="#FFFFFF" width="2.6" height="0.8"/>
<rect x="10.6" y="6.8" fill="#8C6E8C" width="1.8" height="0.8"/>
<rect x="7.2" y="6.8" fill="#8C6E8C" width="2.6" height="0.8"/>
<rect x="4.5" y="6.8" fill="#8C6E8C" width="1.8" height="0.8"/>
<rect x="10.6" y="5" fill="#8C6E8C" width="1.8" height="0.8"/>
<rect x="7.2" y="5" fill="#8C6E8C" width="2.6" height="0.8"/>
<rect x="4.5" y="5" fill="#8C6E8C" width="1.8" height="0.8"/>
<rect x="10.6" y="3.3" fill="#8C6E8C" width="1.8" height="0.8"/>
<rect x="7.2" y="3.3" fill="#8C6E8C" width="2.6" height="0.8"/>
<rect x="4.5" y="3.3" fill="#8C6E8C" width="1.8" height="0.8"/>
</svg>
